HIERARCHY
ROOT Hips
{
	OFFSET 0.000000 0.000000 0.000000
	CHANNELS 6 Xposition Yposition Zposition Zrotation Yrotation Xrotation 
	JOINT LowerBack
	{
		OFFSET 0.000000 0.000000 0.000000
		CHANNELS 3 Zrotation Yrotation Xrotation
		JOINT Spine
		{
			OFFSET 0.028270 2.035590 -0.193380
			CHANNELS 3 Zrotation Yrotation Xrotation
			JOINT Spine1
			{
				OFFSET 0.056720 2.048850 -0.042750
				CHANNELS 3 Zrotation Yrotation Xrotation
				JOINT Neck
				{
					OFFSET 0.000000 0.000000 0.000000
					CHANNELS 3 Zrotation Yrotation Xrotation
					JOINT Neck1
					{
						OFFSET -0.054170 1.746240 0.172020
						CHANNELS 3 Zrotation Yrotation Xrotation
						JOINT Head
						{
							OFFSET 0.104070 1.761360 -0.123970
							CHANNELS 3 Zrotation Yrotation Xrotation
							End Site
							{
								OFFSET 0.000000 0.000000 0.000000
							}
						}
					}
				}
				JOINT LeftShoulder
				{
					OFFSET 0.000000 0.000000 0.000000
					CHANNELS 3 Zrotation Yrotation Xrotation
					JOINT LeftArm
					{
						OFFSET 3.362410 1.200890 -0.311210
						CHANNELS 3 Zrotation Yrotation Xrotation
						JOINT LeftForeArm
						{
							OFFSET 4.983000 -0.000000 -0.000000
							CHANNELS 3 Zrotation Yrotation Xrotation
							JOINT LeftHand
							{
								OFFSET 3.483560 -0.000000 -0.000000
								CHANNELS 3 Zrotation Yrotation Xrotation
								JOINT LeftFingerBase
								{
									OFFSET 0.000000 0.000000 0.000000
									CHANNELS 3 Zrotation Yrotation Xrotation
									JOINT LeftHandIndex1
									{
										OFFSET 0.715260 -0.000000 -0.000000
										CHANNELS 3 Zrotation Yrotation Xrotation
										End Site
										{
											OFFSET 0.000000 0.000000 0.000000
										}
									}
								}
								JOINT LThumb
								{
									OFFSET 0.000000 0.000000 0.000000
									CHANNELS 3 Zrotation Yrotation Xrotation
									End Site
									{
										OFFSET 0.000000 0.000000 0.000000
									}
								}
							}
						}
					}
				}
				JOINT RightShoulder
				{
					OFFSET 0.000000 0.000000 0.000000
					CHANNELS 3 Zrotation Yrotation Xrotation
					JOINT RightArm
					{
						OFFSET -3.136600 1.374050 -0.404650
						CHANNELS 3 Zrotation Yrotation Xrotation
						JOINT RightForeArm
						{
							OFFSET -5.241900 -0.000000 -0.000000
							CHANNELS 3 Zrotation Yrotation Xrotation
							JOINT RightHand
							{
								OFFSET -3.444170 -0.000000 -0.000000
								CHANNELS 3 Zrotation Yrotation Xrotation
								JOINT RightFingerBase
								{
									OFFSET 0.000000 0.000000 0.000000
									CHANNELS 3 Zrotation Yrotation Xrotation
									JOINT RightHandIndex1
									{
										OFFSET -0.622530 -0.000000 -0.000000
										CHANNELS 3 Zrotation Yrotation Xrotation
										End Site
										{
											OFFSET 0.000000 0.000000 0.000000
										}
									}
								}
								JOINT RThumb
								{
									OFFSET 0.000000 0.000000 0.000000
									CHANNELS 3 Zrotation Yrotation Xrotation
									End Site
									{
										OFFSET 0.000000 0.000000 0.000000
									}
								}
							}
						}
					}
				}
			}
		}
	}
}
}
MOTION
Frames: 6
Frame Time: 0.008333
2.524113 17.269255 0.454726 6.871208 -38.724347 2.112167 -7.058839 1.901411 -8.952948 -2.143647 2.363175 -4.237022 -3.999683 2.300309 0.843148 -3.589982 -9.579410 -8.603270 -0.073810 0.007555 -0.177353 0.000000 0.000000 0.000000 6.042288 14.829507 -0.593097 -19.105934 -11.739465 -7.402487 179.885759 -70.321385 -179.990515 -2.541910 -6.370024 0.164544 0.155743 0.628427 0.000000 0.000000 0.000000 0.000000 0.000000 0.000000 0.000000 -11.231067 -2.268789 2.362391 -6.484917 37.746782 -38.212686 -1.316107 12.837418 -0.095912 -15.185195 6.971241 -1.022556 0.333425 -0.522687 -0.000000 0.000000 0.000000 0.000000 0.000000 0.000000 0.000000 
2.526400 17.264958 0.447872 6.778799 -38.299185 2.238093 -7.102636 1.621842 -8.975860 -2.129054 2.088590 -4.249090 -3.969264 2.027018 0.835658 -3.419286 -9.581803 -8.404089 -0.090899 0.002667 -0.119132 0.000000 0.000000 0.000000 6.061704 14.735437 -0.488781 -19.040073 -10.949352 -7.503651 179.924765 -69.557577 -179.989259 -2.648968 -6.338075 0.170311 0.155812 0.630090 -0.000000 0.000000 0.000000 0.000000 0.000000 0.000000 0.000000 -11.142553 -2.314663 2.039906 -5.847126 36.880404 -33.905476 -1.344563 18.326531 -0.093415 -13.649506 6.493663 -0.859091 0.277131 -0.530348 -0.000000 0.000000 0.000000 0.000000 0.000000 0.000000 0.000000 
2.528494 17.261077 0.440069 6.702570 -37.992756 2.332321 -7.154414 1.344472 -8.988958 -2.114171 1.817276 -4.259739 -3.928305 1.755462 0.827398 -3.259899 -9.537587 -8.176844 -0.119443 -0.003595 -0.053594 0.000000 0.000000 0.000000 6.085441 14.732669 -0.390908 -19.008415 -10.234835 -7.600514 179.967076 -68.887504 -179.988016 -2.752831 -6.297742 0.175579 0.155580 0.630838 -0.000000 0.000000 0.000000 0.000000 0.000000 0.000000 0.000000 -10.988341 -2.366897 1.695815 -5.382342 36.149655 -31.003350 -1.393698 23.468437 -0.091492 -12.530606 6.458205 -0.783843 0.228206 -0.541865 -0.000000 0.000000 0.000000 0.000000 0.000000 0.000000 0.000000 
2.530279 17.257854 0.431529 6.634102 -37.818360 2.405453 -7.209446 1.087301 -8.993765 -2.101107 1.566056 -4.266835 -3.887377 1.503275 0.826075 -3.101333 -9.557721 -7.938283 -0.150212 -0.010223 0.014806 0.000000 0.000000 0.000000 6.127803 14.819033 -0.309839 -19.028681 -9.648335 -7.689369 -179.991918 -68.335161 -179.986880 -2.847068 -6.247111 0.179950 0.155281 0.630781 -0.000000 0.000000 0.000000 0.000000 0.000000 0.000000 0.000000 -10.797126 -2.514672 1.319136 -4.926319 35.636412 -29.118038 -1.455402 28.235071 -0.091284 -11.825332 6.666877 -0.761219 0.188335 -0.554372 -0.000000 0.000000 0.000000 0.000000 0.000000 0.000000 0.000000 
2.531620 17.255432 0.422325 6.571553 -37.780295 2.463558 -7.271578 0.862100 -8.993245 -2.092507 1.346583 -4.270520 -3.850913 1.282338 0.833594 -2.931805 -9.672840 -7.696642 -0.180371 -0.016853 0.083763 0.000000 0.000000 0.000000 6.204818 14.979598 -0.250144 -19.115629 -9.212690 -7.765247 -179.954758 -67.908361 -179.985894 -2.926961 -6.187306 0.183120 0.154937 0.630094 -0.000000 0.000000 0.000000 0.000000 0.000000 0.000000 0.000000 -10.575798 -2.773555 0.913058 -4.376031 35.282313 -27.901715 -1.517608 32.714312 -0.093427 -11.516735 6.955256 -0.770417 0.157559 -0.566112 -0.000000 0.000000 0.000000 0.000000 0.000000 0.000000 0.000000 
2.532510 17.253962 0.412875 6.504553 -37.873627 2.518513 -7.336081 0.675667 -8.992986 -2.088297 1.165045 -4.271856 -3.820540 1.098990 0.850832 -2.744803 -9.892719 -7.458617 -0.208520 -0.023263 0.151426 0.000000 0.000000 0.000000 6.319726 15.198381 -0.213790 -19.271671 -8.937133 -7.823037 -179.923136 -67.605686 -179.985129 -2.985346 -6.120939 0.184595 0.154418 0.628964 -0.000000 0.000000 0.000000 0.000000 0.000000 0.000000 0.000000 -10.329090 -3.143439 0.486632 -3.690406 35.027225 -27.113760 -1.568671 36.965719 -0.098135 -11.585468 7.249069 -0.805032 0.135452 -0.576690 -0.000000 0.000000 0.000000 0.000000 0.000000 0.000000 0.000000 
